<svg id="Ebene_1" data-name="Ebene 1" xmlns="http://www.w3.org/2000/svg" viewBox="0 0 372.46372 372.46372"><defs><style>.cls-1{stroke:#000;stroke-miterlimit:10;stroke-width:6.4933px;fill-rule:evenodd;}</style></defs><title>ChriMa</title><path d="M326.97372,325.1176h-.5228l-1.307-.78423-.5228-.78422c-17.77555-39.21075-9.9334-49.40555-.78423-61.43018.5228-.78421,1.04563-1.307,1.56843-2.09123,13.59305-18.29835,20.3896-35.81249,20.3896-54.11084,0-45.22307-36.5967-82.08117-81.55837-82.08117H250.90487a3.22707,3.22707,0,0,0-2.09124,1.04562,2.45628,2.45628,0,0,0-.26141,2.35267l7.05794,20.9124-68.74951,58.55472a22.197,22.197,0,0,0-4.44389,29.016l3.92107,5.4895a13.77781,13.77781,0,0,0,13.59307,5.4895l48.35992-9.14916-4.70529,5.75091a131.53092,131.53092,0,0,1-10.4562,10.4562c-2.61405,2.35265-4.96669,4.44389-7.05793,6.53513-19.08257,19.60537-18.037,50.45115-16.72992,62.7372l.2614,2.09125-2.09123.5228A20.16321,20.16321,0,0,0,193.39578,344.723v1.04562a7.58619,7.58619,0,0,0,7.58074,7.58075h135.1464a7.5862,7.5862,0,0,0,7.58075-7.58075V344.723C343.44225,335.31239,336.3843,326.686,326.97372,325.1176Zm8.62638,20.38959H200.97652V344.723a12.27179,12.27179,0,0,1,12.286-12.286h110.5743a12.21889,12.21889,0,0,1,12.02463,12.286v.78422Zm-75.02324-162.0711a7.58075,7.58075,0,1,1-7.58075,7.58075A7.5862,7.5862,0,0,1,260.57686,183.43609Z"/><path class="cls-1" d="M171.11374,16.88125a5.2812,5.2812,0,0,0-4.56683,5.09814V76.3589a5.09855,5.09855,0,1,0,10.19609,0V27.18346a134.72175,134.72175,0,0,1-5.09788,269.34922c-74.87732,0-134.78125-62.901-134.78125-134.56878v-.63455A134.319,134.319,0,0,1,76.37426,66.48359a5.10691,5.10691,0,0,0-7.22239-7.2221A144.45448,144.45448,0,0,0,26.77407,160.905v.10361a5.136,5.136,0,0,0-.10524.8498c0,81.88423,66.46243,144.87057,144.97733,144.87057,79.97487,0,144.977-64.89612,144.977-144.87078A145.07646,145.07646,0,0,0,171.64616,16.881h-.53138Z"/><path class="cls-1" d="M124.17774,68.48245a5.17635,5.17635,0,0,0-4.78869,7.04013c3.06031,7.90973,8.97906,25.09012,14.78017,41.383,2.90088,8.14645,5.78,16.093,8.3031,22.654,2.52029,6.55322,4.523,11.50793,6.347,14.66091h.00759c5.85837,10.16469,17.99126,15.38266,27.61765,9.86752h.02692c9.57809-5.5661,11.1129-18.666,5.23625-28.82311l-.01173-.02064h0c-1.82018-3.16688-5.10718-7.37563-9.51943-12.83053-4.42191-5.46712-9.86586-11.93378-15.47269-18.51774-11.21367-13.1673-23.13916-26.87922-28.45408-33.48129a5.17656,5.17656,0,0,0-4.0696-1.92684Z"/></svg>